<svg width="122" height="63" viewBox="0 0 122 63" fill="none" xmlns="http://www.w3.org/2000/svg">
<g clip-path="url(#clip0_6144_62653)">
<path d="M52.4339 5.24316L51.123 39.325H77.3399L76.029 5.24316H52.4339Z" fill="white" stroke="white" stroke-width="3.93252" stroke-linecap="round" stroke-linejoin="round"/>
<path d="M26.2168 29.0937L36.0481 23.4177V39.3248H42.6023V19.6359L49.8119 15.474V5.28223L26.2168 18.9084V29.0937Z" fill="white" stroke="white" stroke-width="3.93252" stroke-linecap="round" stroke-linejoin="round"/>
<path d="M1.9668 14.4191H18.5883L14.1117 26.7082L11.1296 22.4414H3.12689L14.9441 39.325H22.9468L18.7062 33.2624L25.5619 14.4191V5.24316H1.9668V14.4191Z" fill="white" stroke="white" stroke-width="3.93252" stroke-linecap="round" stroke-linejoin="round"/>
<path d="M94.3813 5.24316H87.8271V8.52027H79.3066V17.6962H87.8271V39.325H94.3813V17.6962H102.902V8.52027H94.3813V5.24316Z" fill="white" stroke="white" stroke-width="3.93252" stroke-linecap="round" stroke-linejoin="round"/>
<path d="M84.55 20.9731H79.3066V39.3249H84.55V20.9731Z" fill="white" stroke="white" stroke-width="3.93252" stroke-linecap="round" stroke-linejoin="round"/>
<path d="M102.902 20.9731H97.6582V39.3249H102.902V20.9731Z" fill="white" stroke="white" stroke-width="3.93252" stroke-linecap="round" stroke-linejoin="round"/>
<path d="M98.9693 1.96582H96.3477V7.20919H98.9693V1.96582Z" fill="white" stroke="white" stroke-width="3.93252" stroke-linecap="round" stroke-linejoin="round"/>
<path d="M102.901 1.96582H100.279V7.20919H102.901V1.96582Z" fill="white" stroke="white" stroke-width="3.93252" stroke-linecap="round" stroke-linejoin="round"/>
<path d="M52.4339 5.24316L51.123 39.325H77.3399L76.029 5.24316H52.4339Z" fill="black" stroke="black" stroke-width="2.62168" stroke-linecap="round" stroke-linejoin="round"/>
<path d="M26.2168 29.0937L36.0481 23.4177V39.3248H42.6023V19.6359L49.8119 15.474V5.28223L26.2168 18.9084V29.0937Z" fill="black" stroke="black" stroke-width="2.62168" stroke-linecap="round" stroke-linejoin="round"/>
<path d="M1.9668 14.4191H18.5883L14.1117 26.7082L11.1296 22.4414H3.12689L14.9441 39.325H22.9468L18.7062 33.2624L25.5619 14.4191V5.24316H1.9668V14.4191Z" fill="black" stroke="black" stroke-width="2.62168" stroke-linecap="round" stroke-linejoin="round"/>
<path d="M94.3813 5.24316H87.8271V8.52027H79.3066V17.6962H87.8271V39.325H94.3813V17.6962H102.902V8.52027H94.3813V5.24316Z" fill="black" stroke="black" stroke-width="2.62168" stroke-linecap="round" stroke-linejoin="round"/>
<path d="M84.55 20.9731H79.3066V39.3249H84.55V20.9731Z" fill="black" stroke="black" stroke-width="2.62168" stroke-linecap="round" stroke-linejoin="round"/>
<path d="M102.902 20.9731H97.6582V39.3249H102.902V20.9731Z" fill="black" stroke="black" stroke-width="2.62168" stroke-linecap="round" stroke-linejoin="round"/>
<path d="M98.9693 1.96582H96.3477V7.20919H98.9693V1.96582Z" fill="black" stroke="black" stroke-width="2.62168" stroke-linecap="round" stroke-linejoin="round"/>
<path d="M102.901 1.96582H100.279V7.20919H102.901V1.96582Z" fill="black" stroke="black" stroke-width="2.62168" stroke-linecap="round" stroke-linejoin="round"/>
<path d="M77.3399 39.325H51.123L52.4339 5.24316H76.029L77.3399 39.325Z" fill="#FFF76A"/>
<path d="M76.0561 5.89844H53.0639L51.7793 39.3249H77.3407L76.0561 5.89844Z" fill="#F9A300"/>
<path d="M42.6035 39.3251V15.73H36.0493V39.3251H42.6035Z" fill="#F9A300"/>
<path d="M36.7031 39.3251V15.73H36.0477V39.3251H36.7031Z" fill="#FFF76A"/>
<path d="M42.6035 39.3251V15.73H41.9481V39.3251H42.6035Z" fill="#D28600"/>
<path d="M26.2168 18.9089V29.0941L49.8119 15.4745V5.28271L26.2168 18.9089Z" fill="white"/>
<path d="M49.8128 6.04297L26.873 19.2825V28.7205L49.8128 15.4745V6.04297Z" fill="#FFF76A"/>
<path d="M25.5619 5.24365H1.9668V14.4195H25.5619V5.24365Z" fill="#F9A300"/>
<path d="M2.62222 5.24365H1.9668V14.4195H2.62222V5.24365Z" fill="#FFF76A"/>
<path d="M25.5619 5.24365H1.9668V5.89907H25.5619V5.24365Z" fill="#FFF76A"/>
<path d="M12.2891 31.7291L18.4435 33.9706L25.5613 14.4194H18.5877L12.2891 31.7291Z" fill="white"/>
<path d="M19.2814 14.4194L13.127 31.3358L18.8357 32.8957L25.5603 14.4194H19.2814Z" fill="#FFF76A"/>
<path d="M25.5629 14.4194L24.9468 14.2031L18.0059 33.2628H18.7072L25.5629 14.4194Z" fill="#FCD13C"/>
<path d="M102.9 8.52002H79.3047V17.6959H102.9V8.52002Z" fill="#FCD13C"/>
<path d="M102.9 8.52002H79.3047V9.17544H102.9V8.52002Z" fill="white"/>
<path d="M79.9601 8.52002H79.3047V17.6959H79.9601V8.52002Z" fill="white"/>
<path d="M79.9601 17.0405H102.9V17.6959H79.3047L79.9601 17.0405Z" fill="#F9A300"/>
<path d="M102.244 9.17544L102.9 8.52002V17.6959H102.244V9.17544Z" fill="#F9A300"/>
<path d="M94.3789 39.325V5.24316H87.8247V39.325H94.3789Z" fill="#F9A300"/>
<path d="M84.5488 39.3249V20.9731H79.3055V39.3249H84.5488Z" fill="#FFF76A"/>
<path d="M84.5488 21.6286V20.9731H79.3055V21.6286H84.5488Z" fill="white"/>
<path d="M79.9609 39.3249V20.9731H79.3055V39.3249H79.9609Z" fill="white"/>
<path d="M84.5481 38.6694V39.3249H79.3047L79.9601 38.6694H84.5481Z" fill="#FCD13C"/>
<path d="M84.548 20.9731V39.3249H83.8926V21.6286L84.548 20.9731Z" fill="#FCD13C"/>
<path d="M102.9 39.3249V20.9731H97.657V39.3249H102.9Z" fill="#F9A300"/>
<path d="M102.9 21.6286V20.9731H97.657V21.6286H102.9Z" fill="#FFF76A"/>
<path d="M98.3125 39.3249V20.9731H97.6571V39.3249H98.3125Z" fill="#FFF76A"/>
<path d="M102.9 38.6694V39.3249H97.6562L98.3117 38.6694H102.9Z" fill="#D28600"/>
<path d="M102.9 20.9731V39.3249H102.244V21.6286L102.9 20.9731Z" fill="#D28600"/>
<path d="M94.3809 5.89858V5.24316H87.8267V5.89858H94.3809Z" fill="#FFF76A"/>
<path d="M88.4824 39.325V5.24316H87.827V39.325H88.4824Z" fill="#FFF76A"/>
<path d="M94.3804 38.6699V39.3253H87.8262L88.4816 38.6699H94.3804Z" fill="#D28600"/>
<path d="M94.38 5.24316V39.325H93.7246V5.89858L94.38 5.24316Z" fill="#D28600"/>
<path d="M98.9693 1.96582H96.3477V7.20919H98.9693V1.96582Z" fill="#FCD13C"/>
<path d="M98.9693 1.96582H96.3477V2.62124H98.9693V1.96582Z" fill="white"/>
<path d="M97.0031 1.96582H96.3477V7.20919H97.0031V1.96582Z" fill="white"/>
<path d="M97.0031 6.55371H98.9693V7.20913H96.3477L97.0031 6.55371Z" fill="#F9A300"/>
<path d="M98.3145 2.62124L98.9699 1.96582V7.20919H98.3145V2.62124Z" fill="#F9A300"/>
<path d="M102.903 1.96582H100.281V7.20919H102.903V1.96582Z" fill="#FCD13C"/>
<path d="M57.3394 18.056C58.4274 18.0363 59.3253 18.9015 59.345 19.9895C59.3646 21.0709 58.4995 21.9689 57.4115 21.9885C56.33 22.0082 55.4321 21.143 55.4124 20.0616C55.3928 18.9736 56.2579 18.0757 57.3394 18.056Z" fill="black"/>
<path d="M73.0442 20.0552C73.0245 21.1367 72.1331 22.0018 71.0452 21.9822C69.9572 21.9625 69.092 21.0711 69.1117 19.9831C69.1313 18.8951 70.0227 18.03 71.1172 18.0496C72.1987 18.0693 73.0638 18.9607 73.0442 20.0552Z" fill="black"/>
<path d="M69.8269 23.4702C69.6958 23.4178 66.1303 23.5095 64.2296 23.5161C62.3289 23.5161 58.7634 23.4243 58.6323 23.4702C58.5012 23.5226 58.4619 23.6079 58.4881 23.7914C58.5275 24.0535 59.563 26.6424 62.5321 27.7304C63.181 27.9664 63.7118 28.0516 64.2231 28.045C64.7343 28.0516 65.2652 27.9664 65.9141 27.7304C68.8831 26.649 69.9187 24.0535 69.958 23.7914C69.9842 23.6144 69.9449 23.5226 69.8138 23.4702H69.8269Z" fill="black"/>
<path d="M11.1296 22.4419H3.12695L14.9442 39.3255H22.9469L11.1296 22.4419Z" fill="white"/>
<path d="M101.59 34.4093C101.59 34.5862 101.446 34.737 101.263 34.737H99.2965C99.1195 34.737 98.9688 34.5862 98.9688 34.4093C98.9688 34.2323 99.1195 34.0815 99.2965 34.0815H101.263C101.446 34.0815 101.59 34.2323 101.59 34.4093Z" fill="#367D86"/>
<path d="M101.59 35.7203C101.59 35.8973 101.446 36.048 101.263 36.048H99.2965C99.1195 36.048 98.9688 35.8973 98.9688 35.7203C98.9688 35.5433 99.1195 35.3926 99.2965 35.3926H101.263C101.446 35.3926 101.59 35.5433 101.59 35.7203Z" fill="#367D86"/>
<path d="M101.59 37.0313C101.59 37.2083 101.446 37.359 101.263 37.359H99.2965C99.1195 37.359 98.9688 37.2083 98.9688 37.0313C98.9688 36.8544 99.1195 36.7036 99.2965 36.7036H101.263C101.446 36.7036 101.59 36.8544 101.59 37.0313Z" fill="#367D86"/>
<path d="M39.3245 34.4097C39.3245 34.5867 39.1738 34.7375 38.9968 34.7375H38.3414C38.1644 34.7375 38.0137 34.5867 38.0137 34.4097C38.0137 34.2328 38.1644 34.082 38.3414 34.082H38.9968C39.1738 34.082 39.3245 34.2328 39.3245 34.4097Z" fill="#367D86"/>
<path d="M39.3245 33.0987C39.3245 33.2757 39.1738 33.4264 38.9968 33.4264H38.3414C38.1644 33.4264 38.0137 33.2757 38.0137 33.0987C38.0137 32.9217 38.1644 32.771 38.3414 32.771H38.9968C39.1738 32.771 39.3245 32.9217 39.3245 33.0987Z" fill="#367D86"/>
<path d="M39.3245 35.7203C39.3245 35.8973 39.1738 36.048 38.9968 36.048H38.3414C38.1644 36.048 38.0137 35.8973 38.0137 35.7203C38.0137 35.5433 38.1644 35.3926 38.3414 35.3926H38.9968C39.1738 35.3926 39.3245 35.5433 39.3245 35.7203Z" fill="#367D86"/>
<path d="M39.3245 37.0313C39.3245 37.2083 39.1738 37.359 38.9968 37.359H38.3414C38.1644 37.359 38.0137 37.2083 38.0137 37.0313C38.0137 36.8544 38.1644 36.7036 38.3414 36.7036H38.9968C39.1738 36.7036 39.3245 36.8544 39.3245 37.0313Z" fill="#367D86"/>
<path d="M81.9289 11.7972C82.2908 11.7972 82.5843 11.5037 82.5843 11.1417C82.5843 10.7798 82.2908 10.4863 81.9289 10.4863C81.5669 10.4863 81.2734 10.7798 81.2734 11.1417C81.2734 11.5037 81.5669 11.7972 81.9289 11.7972Z" fill="#367D86"/>
<path d="M81.9289 13.7635C82.2908 13.7635 82.5843 13.47 82.5843 13.1081C82.5843 12.7461 82.2908 12.4526 81.9289 12.4526C81.5669 12.4526 81.2734 12.7461 81.2734 13.1081C81.2734 13.47 81.5669 13.7635 81.9289 13.7635Z" fill="#367D86"/>
<path d="M81.9289 15.7298C82.2908 15.7298 82.5843 15.4363 82.5843 15.0744C82.5843 14.7124 82.2908 14.4189 81.9289 14.4189C81.5669 14.4189 81.2734 14.7124 81.2734 15.0744C81.2734 15.4363 81.5669 15.7298 81.9289 15.7298Z" fill="#367D86"/>
<path d="M21.6299 45.7812H8.52148V49.7138H21.6299V45.7812Z" fill="white" stroke="white" stroke-width="1.31084"/>
<path d="M52.4351 45.7812H41.293V49.7138H52.4351V45.7812Z" fill="white" stroke="white" stroke-width="1.31084"/>
<path d="M21.6299 57.5786H8.52148V61.5111H21.6299V57.5786Z" fill="white" stroke="white" stroke-width="1.31084"/>
<path d="M34.7395 57.5786H24.9082V61.5111H33.4287L34.7395 57.5786Z" fill="white" stroke="white" stroke-width="1.31084"/>
<path d="M50.4689 57.5786H41.293V61.5111H49.158L50.4689 57.5786Z" fill="white" stroke="white" stroke-width="1.31084"/>
<path d="M19.0078 45.7811V61.5112H21.6295V45.7811H19.0078Z" fill="white" stroke="white" stroke-width="1.31084"/>
<path d="M79.9629 48.4028V61.5112H82.5846V48.4028H79.9629Z" fill="white" stroke="white" stroke-width="1.31084"/>
<path d="M24.9082 45.7811V61.5112H27.5299V45.7811H24.9082Z" fill="white" stroke="white" stroke-width="1.31084"/>
<path d="M43.9147 45.7812H41.293V51.0246H43.9147V45.7812Z" fill="white" stroke="white" stroke-width="1.31084"/>
<path d="M62.2651 45.7812H55.7109V49.7138H62.2651V45.7812Z" fill="white" stroke="white" stroke-width="1.31084"/>
<path d="M62.2651 51.0244H55.7109V53.6461H62.2651V51.0244Z" fill="white" stroke="white" stroke-width="1.31084"/>
<path d="M82.5844 58.8896H72.0977V61.5113H82.5844V58.8896Z" fill="white" stroke="white" stroke-width="1.31084"/>
<path d="M82.5844 53.6465H72.0977V56.2682H82.5844V53.6465Z" fill="white" stroke="white" stroke-width="1.31084"/>
<path d="M82.5844 48.4028H72.0977V52.3354H82.5844V48.4028Z" fill="white" stroke="white" stroke-width="1.31084"/>
<path d="M35.3945 51.0246V56.9233H38.0162V51.0246H35.3945Z" fill="white" stroke="white" stroke-width="1.31084"/>
<path d="M49.8145 45.7814V58.2344H52.4361V45.7814H49.8145Z" fill="white" stroke="white" stroke-width="1.31084"/>
<path d="M51.0124 55.9531L47.3027 59.6562L49.1576 61.5111L52.4347 58.234V57.3754L51.0124 55.9531Z" fill="white" stroke="white" stroke-width="1.31084"/>
<path d="M66.8528 57.5786H57.0215V61.5111H65.542L66.8528 57.5786Z" fill="white" stroke="white" stroke-width="1.31084"/>
<path d="M66.1992 45.7814V58.2344H68.8209V45.7814H66.1992Z" fill="white" stroke="white" stroke-width="1.31084"/>
<path d="M67.3972 55.9531L63.6875 59.6562L65.5423 61.5111L68.8194 58.234V57.3754L67.3972 55.9531Z" fill="white" stroke="white" stroke-width="1.31084"/>
<path d="M91.7593 45.7812H85.2051V49.7138H91.7593V45.7812Z" fill="white" stroke="white" stroke-width="1.31084"/>
<path d="M96.3489 57.5786H86.5176V61.5111H95.038L96.3489 57.5786Z" fill="white" stroke="white" stroke-width="1.31084"/>
<path d="M95.6914 45.7814V58.2344H98.3131V45.7814H95.6914Z" fill="white" stroke="white" stroke-width="1.31084"/>
<path d="M96.8913 55.9531L93.1816 59.6562L95.0365 61.5111L98.3136 58.234V57.3754L96.8913 55.9531Z" fill="white" stroke="white" stroke-width="1.31084"/>
<path d="M36.2061 55.0229L31.5723 59.6568L33.4271 61.5116L38.0151 56.9237V56.8319L36.2061 55.0229Z" fill="white" stroke="white" stroke-width="1.31084"/>
<path d="M43.9149 51.0245V50.2642L42.4402 48.7896L39.9824 51.2539V52.9908H41.9487L43.9149 51.0245Z" fill="white" stroke="white" stroke-width="1.31084"/>
<path d="M21.6299 45.7812H8.52148V49.7138H21.6299V45.7812Z" fill="black"/>
<path d="M52.4351 45.7812H41.293V49.7138H52.4351V45.7812Z" fill="black"/>
<path d="M21.6299 57.5786H8.52148V61.5111H21.6299V57.5786Z" fill="black"/>
<path d="M34.7395 57.5786H24.9082V61.5111H33.4287L34.7395 57.5786Z" fill="black"/>
<path d="M50.4689 57.5786H41.293V61.5111H49.158L50.4689 57.5786Z" fill="black"/>
<path d="M19.0078 45.7811V61.5112H21.6295V45.7811H19.0078Z" fill="black"/>
<path d="M79.9629 48.4028V61.5112H82.5846V48.4028H79.9629Z" fill="black"/>
<path d="M24.9082 45.7811V61.5112H27.5299V45.7811H24.9082Z" fill="black"/>
<path d="M43.9147 45.7812H41.293V51.0246H43.9147V45.7812Z" fill="black"/>
<path d="M62.2651 45.7812H55.7109V49.7138H62.2651V45.7812Z" fill="black"/>
<path d="M62.2651 51.0244H55.7109V53.6461H62.2651V51.0244Z" fill="black"/>
<path d="M82.5844 58.8896H72.0977V61.5113H82.5844V58.8896Z" fill="black"/>
<path d="M82.5844 53.6465H72.0977V56.2682H82.5844V53.6465Z" fill="black"/>
<path d="M82.5844 48.4028H72.0977V52.3354H82.5844V48.4028Z" fill="black"/>
<path d="M35.3945 51.0246V56.9233H38.0162V51.0246H35.3945Z" fill="black"/>
<path d="M49.8145 45.7814V58.2344H52.4361V45.7814H49.8145Z" fill="black"/>
<path d="M51.0124 55.9531L47.3027 59.6562L49.1576 61.5111L52.4347 58.234V57.3754L51.0124 55.9531Z" fill="black"/>
<path d="M66.8528 57.5786H57.0215V61.5111H65.542L66.8528 57.5786Z" fill="black"/>
<path d="M66.1992 45.7814V58.2344H68.8209V45.7814H66.1992Z" fill="black"/>
<path d="M67.3972 55.9531L63.6875 59.6562L65.5423 61.5111L68.8194 58.234V57.3754L67.3972 55.9531Z" fill="black"/>
<path d="M91.7593 45.7812H85.2051V49.7138H91.7593V45.7812Z" fill="black"/>
<path d="M96.3489 57.5786H86.5176V61.5111H95.038L96.3489 57.5786Z" fill="black"/>
<path d="M95.6914 45.7814V58.2344H98.3131V45.7814H95.6914Z" fill="black"/>
<path d="M96.8913 55.9531L93.1816 59.6562L95.0365 61.5111L98.3136 58.234V57.3754L96.8913 55.9531Z" fill="black"/>
<path d="M36.2061 55.0229L31.5723 59.6568L33.4271 61.5116L38.0151 56.9237V56.8319L36.2061 55.0229Z" fill="black"/>
<path d="M43.9149 51.0245V50.2642L42.4402 48.7896L39.9824 51.2539V52.9908H41.9487L43.9149 51.0245Z" fill="black"/>
<path d="M11.5878 23.0972H4.38477L15.7432 39.3254H22.9463L11.5878 23.0972Z" fill="#FCD13C"/>
<path d="M15.2852 38.6701L14.9444 39.3255H22.9471L11.1299 22.4419L10.7891 23.0973L21.6887 38.6701H15.2852Z" fill="#D28600"/>
<path d="M22.9471 39.3255L11.1299 22.4419L10.7891 23.0973L21.6887 38.6701L22.9471 39.3255Z" fill="#FCD13C"/>
<path d="M3.12695 22.4419L14.9442 39.3255L15.285 38.6701L4.38536 23.0973L3.12695 22.4419Z" fill="#F9A300"/>
<path d="M36.0488 39.3253L36.7042 38.6699H42.603V39.3253H36.0488Z" fill="#D28600"/>
<path d="M49.8119 15.474V5.28223L49.1565 6.42266V15.0939L26.8722 27.9598L26.2168 29.0937L49.8119 15.474Z" fill="#FCD13C"/>
<path d="M77.3399 39.325L76.029 5.24316L75.3998 5.89858L76.6582 38.6696H51.8047L51.123 39.325H77.3399Z" fill="#D28600"/>
<path d="M110.901 46.5098C113.168 46.5098 114.093 47.9517 114.093 49.4264C114.093 50.6324 113.326 51.9563 112.159 52.2119C112.992 52.4872 113.686 53.5621 113.686 54.6632C113.686 54.7287 113.686 54.8074 113.673 54.886C113.477 57.1669 112.257 58.5171 109.511 58.5171C108.292 58.5171 107.578 57.9469 107.388 57.7896L107.165 59.2708H105.297L106.811 50.1146C107.073 48.4826 107.899 46.5098 110.907 46.5098H110.901ZM109.36 51.1633H109.839C111.668 51.1633 112.094 50.5406 112.238 49.5706C112.251 49.5181 112.251 49.4657 112.251 49.4133C112.251 48.8168 111.707 48.2204 110.861 48.2204C110.186 48.2204 109.826 48.3646 109.472 48.6464C109.151 48.8955 108.797 49.5444 108.692 50.2522L107.722 56.0199C107.945 56.3804 108.626 56.7868 109.511 56.7868C111.327 56.7868 111.753 55.5546 111.753 54.5977C111.753 53.5752 110.783 52.9132 109.616 52.9132H109.059L109.367 51.1633H109.36Z" fill="black"/>
<path d="M110.901 46.5098C113.168 46.5098 114.093 47.9517 114.093 49.4264C114.093 50.6324 113.326 51.9563 112.159 52.2119C112.992 52.4872 113.686 53.5621 113.686 54.6632C113.686 54.7287 113.686 54.8074 113.673 54.886C113.477 57.1669 112.257 58.5171 109.511 58.5171C108.292 58.5171 107.578 57.9469 107.388 57.7896L107.165 59.2708H105.297L106.811 50.1146C107.073 48.4826 107.899 46.5098 110.907 46.5098H110.901ZM109.36 51.1633H109.839C111.668 51.1633 112.094 50.5406 112.238 49.5706C112.251 49.5181 112.251 49.4657 112.251 49.4133C112.251 48.8168 111.707 48.2204 110.861 48.2204C110.186 48.2204 109.826 48.3646 109.472 48.6464C109.151 48.8955 108.797 49.5444 108.692 50.2522L107.722 56.0199C107.945 56.3804 108.626 56.7868 109.511 56.7868C111.327 56.7868 111.753 55.5546 111.753 54.5977C111.753 53.5752 110.783 52.9132 109.616 52.9132H109.059L109.367 51.1633H109.36Z" stroke="white" stroke-width="1.31084" stroke-miterlimit="10"/>
<path d="M114.96 58.2086L114.285 57.9005C114.226 57.8808 114.206 57.835 114.232 57.7629C114.586 56.747 114.632 55.3903 114.638 53.9156V51.5167C114.638 51.4512 114.678 51.4118 114.743 51.4118H115.405C115.477 51.4118 115.51 51.4512 115.51 51.5167V53.1684H115.989V51.3856C115.989 51.3135 116.028 51.2808 116.093 51.2808H116.729C116.801 51.2808 116.834 51.3201 116.834 51.3856V53.1684H117.214C117.286 53.1684 117.319 53.2011 117.319 53.2732V53.9942C117.319 54.0597 117.28 54.0991 117.214 54.0991H115.504V54.7807L116.867 54.7873C116.939 54.7873 116.972 54.8266 116.972 54.8921V57.4483C117.444 56.6945 117.555 55.4623 117.555 54.1515V51.6085C117.549 51.5364 117.575 51.5036 117.653 51.5036H121.042C121.114 51.5036 121.147 51.5429 121.147 51.6085V52.3098C121.147 52.3753 121.107 52.4146 121.042 52.4146H118.46V53.2798H120.904C120.97 53.2798 121.009 53.3191 121.009 53.3847V53.5682C120.976 54.571 120.78 55.6065 120.275 56.5045C120.557 56.8256 120.878 57.0878 121.271 57.3106C121.33 57.3434 121.35 57.3958 121.317 57.4548L120.989 58.143C120.97 58.1889 120.937 58.2151 120.904 58.2151C120.878 58.2151 120.858 58.2086 120.845 58.1889C120.426 57.9136 120.065 57.599 119.757 57.2385C119.436 57.6056 119.036 57.9333 118.558 58.1955C118.538 58.2086 118.512 58.2086 118.499 58.2086C118.46 58.2086 118.427 58.1823 118.414 58.1496L118.06 57.4548C117.975 57.7104 117.87 57.9398 117.745 58.1496C117.725 58.1823 117.693 58.202 117.66 58.202C117.64 58.202 117.614 58.1954 117.588 58.1823L116.972 57.7891V58.143C116.972 58.2151 116.932 58.2479 116.867 58.2479H116.211C116.139 58.2413 116.107 58.202 116.107 58.1299V55.7114H115.471C115.425 56.629 115.327 57.4876 115.091 58.143C115.064 58.202 115.012 58.2282 114.953 58.1955L114.96 58.2086ZM119.22 56.5307C118.84 55.8294 118.663 55.0494 118.61 54.1122H118.473V54.1843C118.473 55.2395 118.414 56.3799 118.119 57.3106C118.532 57.1206 118.899 56.8912 119.22 56.5307ZM119.764 55.7573C119.987 55.305 120.092 54.7414 120.131 54.1122H119.39C119.436 54.7348 119.561 55.2788 119.764 55.7573Z" fill="black"/>
<path d="M114.96 58.2086L114.285 57.9005C114.226 57.8808 114.206 57.835 114.232 57.7629C114.586 56.747 114.632 55.3903 114.638 53.9156V51.5167C114.638 51.4512 114.678 51.4118 114.743 51.4118H115.405C115.477 51.4118 115.51 51.4512 115.51 51.5167V53.1684H115.989V51.3856C115.989 51.3135 116.028 51.2808 116.093 51.2808H116.729C116.801 51.2808 116.834 51.3201 116.834 51.3856V53.1684H117.214C117.286 53.1684 117.319 53.2011 117.319 53.2732V53.9942C117.319 54.0597 117.28 54.0991 117.214 54.0991H115.504V54.7807L116.867 54.7873C116.939 54.7873 116.972 54.8266 116.972 54.8921V57.4483C117.444 56.6945 117.555 55.4623 117.555 54.1515V51.6085C117.549 51.5364 117.575 51.5036 117.653 51.5036H121.042C121.114 51.5036 121.147 51.5429 121.147 51.6085V52.3098C121.147 52.3753 121.107 52.4146 121.042 52.4146H118.46V53.2798H120.904C120.97 53.2798 121.009 53.3191 121.009 53.3847V53.5682C120.976 54.571 120.78 55.6065 120.275 56.5045C120.557 56.8256 120.878 57.0878 121.271 57.3106C121.33 57.3434 121.35 57.3958 121.317 57.4548L120.989 58.143C120.97 58.1889 120.937 58.2151 120.904 58.2151C120.878 58.2151 120.858 58.2086 120.845 58.1889C120.426 57.9136 120.065 57.599 119.757 57.2385C119.436 57.6056 119.036 57.9333 118.558 58.1955C118.538 58.2086 118.512 58.2086 118.499 58.2086C118.46 58.2086 118.427 58.1823 118.414 58.1496L118.06 57.4548C117.975 57.7104 117.87 57.9398 117.745 58.1496C117.725 58.1823 117.693 58.202 117.66 58.202C117.64 58.202 117.614 58.1954 117.588 58.1823L116.972 57.7891V58.143C116.972 58.2151 116.932 58.2479 116.867 58.2479H116.211C116.139 58.2413 116.107 58.202 116.107 58.1299V55.7114H115.471C115.425 56.629 115.327 57.4876 115.091 58.143C115.064 58.202 115.012 58.2282 114.953 58.1955L114.96 58.2086ZM119.22 56.5307C118.84 55.8294 118.663 55.0494 118.61 54.1122H118.473V54.1843C118.473 55.2395 118.414 56.3799 118.119 57.3106C118.532 57.1206 118.899 56.8912 119.22 56.5307ZM119.764 55.7573C119.987 55.305 120.092 54.7414 120.131 54.1122H119.39C119.436 54.7348 119.561 55.2788 119.764 55.7573Z" stroke="white" stroke-width="1.31084" stroke-miterlimit="10"/>
<path d="M110.817 61.6623C106.039 61.6623 102.152 57.7757 102.152 52.9977C102.152 48.2197 106.039 44.333 110.817 44.333C113.701 44.333 116.388 45.7618 118 48.1541L117.155 48.7243C115.726 46.6139 113.36 45.3555 110.817 45.3555C106.603 45.3555 103.168 48.7833 103.168 53.0042C103.168 57.2251 106.596 60.653 110.817 60.653C111.853 60.653 112.849 60.4498 113.793 60.05L114.192 60.9872C113.124 61.4395 111.99 61.6689 110.817 61.6689V61.6623Z" fill="black" stroke="white" stroke-width="1.31084" stroke-miterlimit="10"/>
<path d="M110.903 46.5093C113.17 46.5093 114.095 47.9512 114.095 49.4259C114.095 50.6319 113.328 51.9558 112.161 52.2114C112.993 52.4867 113.688 53.5616 113.688 54.6627C113.688 54.7283 113.688 54.8069 113.675 54.8856C113.478 57.1664 112.259 58.5166 109.513 58.5166C108.294 58.5166 107.58 57.9464 107.39 57.7891L107.167 59.2703H105.299L106.813 50.1141C107.075 48.4821 107.901 46.5093 110.909 46.5093H110.903ZM109.362 51.1628H109.841C111.67 51.1628 112.096 50.5401 112.24 49.5701C112.253 49.5177 112.253 49.4652 112.253 49.4128C112.253 48.8164 111.709 48.2199 110.863 48.2199C110.188 48.2199 109.828 48.3641 109.474 48.646C109.153 48.895 108.799 49.5439 108.694 50.2517L107.724 56.0194C107.947 56.3799 108.628 56.7863 109.513 56.7863C111.329 56.7863 111.755 55.5541 111.755 54.5972C111.755 53.5747 110.785 52.9127 109.618 52.9127H109.061L109.369 51.1628H109.362Z" fill="#644C24"/>
<path d="M114.96 58.2086L114.285 57.9005C114.226 57.8808 114.206 57.835 114.232 57.7629C114.586 56.747 114.632 55.3903 114.638 53.9156V51.5167C114.638 51.4512 114.678 51.4118 114.743 51.4118H115.405C115.477 51.4118 115.51 51.4512 115.51 51.5167V53.1684H115.989V51.3856C115.989 51.3135 116.028 51.2808 116.093 51.2808H116.729C116.801 51.2808 116.834 51.3201 116.834 51.3856V53.1684H117.214C117.286 53.1684 117.319 53.2011 117.319 53.2732V53.9942C117.319 54.0597 117.28 54.0991 117.214 54.0991H115.504V54.7807L116.867 54.7873C116.939 54.7873 116.972 54.8266 116.972 54.8921V57.4483C117.444 56.6945 117.555 55.4623 117.555 54.1515V51.6085C117.549 51.5364 117.575 51.5036 117.653 51.5036H121.042C121.114 51.5036 121.147 51.5429 121.147 51.6085V52.3098C121.147 52.3753 121.107 52.4146 121.042 52.4146H118.46V53.2798H120.904C120.97 53.2798 121.009 53.3191 121.009 53.3847V53.5682C120.976 54.571 120.78 55.6065 120.275 56.5045C120.557 56.8256 120.878 57.0878 121.271 57.3106C121.33 57.3434 121.35 57.3958 121.317 57.4548L120.989 58.143C120.97 58.1889 120.937 58.2151 120.904 58.2151C120.878 58.2151 120.858 58.2086 120.845 58.1889C120.426 57.9136 120.065 57.599 119.757 57.2385C119.436 57.6056 119.036 57.9333 118.558 58.1955C118.538 58.2086 118.512 58.2086 118.499 58.2086C118.46 58.2086 118.427 58.1823 118.414 58.1496L118.06 57.4548C117.975 57.7104 117.87 57.9398 117.745 58.1496C117.725 58.1823 117.693 58.202 117.66 58.202C117.64 58.202 117.614 58.1954 117.588 58.1823L116.972 57.7891V58.143C116.972 58.2151 116.932 58.2479 116.867 58.2479H116.211C116.139 58.2413 116.107 58.202 116.107 58.1299V55.7114H115.471C115.425 56.629 115.327 57.4876 115.091 58.143C115.064 58.202 115.012 58.2282 114.953 58.1955L114.96 58.2086ZM119.22 56.5307C118.84 55.8294 118.663 55.0494 118.61 54.1122H118.473V54.1843C118.473 55.2395 118.414 56.3799 118.119 57.3106C118.532 57.1206 118.899 56.8912 119.22 56.5307ZM119.764 55.7573C119.987 55.305 120.092 54.7414 120.131 54.1122H119.39C119.436 54.7348 119.561 55.2788 119.764 55.7573Z" fill="#644C24"/>
<path d="M110.817 61.6623C106.039 61.6623 102.152 57.7757 102.152 52.9977C102.152 48.2197 106.039 44.333 110.817 44.333C113.701 44.333 116.388 45.7618 118 48.1541L117.155 48.7243C115.726 46.6139 113.36 45.3555 110.817 45.3555C106.603 45.3555 103.168 48.7833 103.168 53.0042C103.168 57.2251 106.596 60.653 110.817 60.653C111.853 60.653 112.849 60.4498 113.793 60.05L114.192 60.9872C113.124 61.4395 111.99 61.6689 110.817 61.6689V61.6623Z" fill="#644C24"/>
</g>
<defs>
<clipPath id="clip0_6144_62653">
<rect width="122" height="62.4419" fill="white"/>
</clipPath>
</defs>
</svg>
